<svg width="36" height="36" viewBox="0 0 36 36" fill="none" xmlns="http://www.w3.org/2000/svg">
<path d="M2.8924 12.8523H5.1424C5.31919 12.8523 5.46383 12.7076 5.46383 12.5308V5.4594H12.5353C12.712 5.4594 12.8567 5.31476 12.8567 5.13797V2.88797C12.8567 2.71119 12.712 2.56654 12.5353 2.56654H5.30311C3.7924 2.56654 2.57097 3.78797 2.57097 5.29869V12.5308C2.57097 12.7076 2.71561 12.8523 2.8924 12.8523ZM23.4638 5.4594H30.5353V12.5308C30.5353 12.7076 30.6799 12.8523 30.8567 12.8523H33.1067C33.2835 12.8523 33.4281 12.7076 33.4281 12.5308V5.29869C33.4281 3.78797 32.2067 2.56654 30.696 2.56654H23.4638C23.287 2.56654 23.1424 2.71119 23.1424 2.88797V5.13797C23.1424 5.31476 23.287 5.4594 23.4638 5.4594ZM12.5353 30.5308H5.46383V23.4594C5.46383 23.2826 5.31919 23.138 5.1424 23.138H2.8924C2.71561 23.138 2.57097 23.2826 2.57097 23.4594V30.6915C2.57097 32.2023 3.7924 33.4237 5.30311 33.4237H12.5353C12.712 33.4237 12.8567 33.279 12.8567 33.1023V30.8523C12.8567 30.6755 12.712 30.5308 12.5353 30.5308ZM33.1067 23.138H30.8567C30.6799 23.138 30.5353 23.2826 30.5353 23.4594V30.5308H23.4638C23.287 30.5308 23.1424 30.6755 23.1424 30.8523V33.1023C23.1424 33.279 23.287 33.4237 23.4638 33.4237H30.696C32.2067 33.4237 33.4281 32.2023 33.4281 30.6915V23.4594C33.4281 23.2826 33.2835 23.138 33.1067 23.138ZM33.7495 16.5487H2.24954C2.07276 16.5487 1.92811 16.6933 1.92811 16.8701V19.1201C1.92811 19.2969 2.07276 19.4415 2.24954 19.4415H33.7495C33.9263 19.4415 34.071 19.2969 34.071 19.1201V16.8701C34.071 16.6933 33.9263 16.5487 33.7495 16.5487Z" fill="black" fill-opacity="0.85"/>
</svg>
